<?xml version="1.0" encoding="utf-8"?>
<!-- Created with Inkscape (http://www.inkscape.org/) -->
<svg height="286.47" id="svg11306" version="1.1" width="377.6" xmlns="http://www.w3.org/2000/svg" xmlns:cc="http://creativecommons.org/ns#" xmlns:dc="http://purl.org/dc/elements/1.1/" xmlns:rdf="http://www.w3.org/1999/02/22-rdf-syntax-ns#">
 <g fill-rule="evenodd" id="layer1" transform="translate(-230.21 -403.53)">
  <path d="m268.29 499.17c23.814-7.407 49.561-6.8424 73.596-0.7675-19.015-3.1948-38.448-5.443-57.79-2.0482-5.2605 0.21969-11.139 2.8205-15.807 2.8156" id="path2676"/>
  <path d="m324.2 498.13c-17.319-1.9142-34.973-1.2763-51.912 3.1725 14.358-5.866 33.966-5.8658 50.404-3.6547l1.5083 0.48219z" id="path2678"/>
  <path d="m277.57 501.15c9.1048-3.8643 33.983-3.6107 34.946-1.7838-11.673-1.5211-23.717 0.64651-34.946 1.7838z" id="path2680"/>
  <path d="m313.1 501.06c-10.508 0.72102-23.43 1.2623-32.739 1.6512 10.76-1.8353 21.882-2.2448 32.739-1.6512z" id="path2682"/>
  <path d="m283.35 505.03c8.8289-1.5736 29.585-3.1036 32.102-1.2146-10.745-0.98688-21.43 1.3262-32.102 1.2146z" id="path2684"/>
  <path d="m303.25 519.37c5.7491 4.04 27.106 5.4433 25.456 7.7769-8.8042-0.62465-18.479-2.3897-25.456-7.7769z" id="path2686"/>
  <path d="m591.35 557.19c-4.7353-2.7291-4.9202-1.3716 0 0zm-143.84 124.5c-1.9378-5.8572-5.7846-10.062-1.2648-1.8236l1.2648 1.8236zm140.06-126.12c-8.7984-4.1652-8.9574-2.8594 0 0zm-7.1175-10.249c-4.0883-3.4523-1.3629 0.11927 0 0zm-156.57 133.08c-0.10317-1.1458-3.691-1.1159 0 0zm160.57-142.48c-1.2881-2.9673-2.3078-1.6727 0 0zm-143.42 133.55c4.3482 18.551-6.5272-34.714-2.383-9.0012 0.55005 3.0582 1.3582 6.0684 2.383 9.0012zm-20.646-0.95625c-1.6908-2.45-2.5277-0.72703 0 0zm157.35-135.42c-3.3966-4.7006-4.6109-3.7947 0 0zm-139.88 115.59c0.83239-0.42589-0.91445-1.8554 0 0zm157.28-101.41c-1.8883-7.9823-16.173-27.906-15.836-24.966 6.3725 7.5839 10.821 16.489 15.836 24.966zm-152.88 97.299c1.175-9.2513-0.21303-8.6325 0 0zm136.78-114.28c-3.5631-6.3404-8.9348-9.3519-1.3921-1.8686l1.3921 1.8686zm-140.94 116.52c0.33914-5.217 1.2675-19.56-0.19531-6.3828l0.0399 3.3092 0.15543 3.0736zm-23.776 8.6275c-0.76372-2.1877-1.404-0.94574 0 0zm121.66-121.03c-2.0486-0.28642-1.5893 0.88391 0 0zm-50.061 28.895c-0.5106-4.6832-1.6542-3.4611 0 0zm-3.1438-5.7275c8.2633 19.68-10.151-29.126-2.3638-7.1645 0.90904 2.346 1.6754 4.7453 2.3638 7.1645zm-5.93-15.066c-1.6879-3.3892-2.5726-2.2274 0 0zm9.04 21.294c-2.3313 3.9211 1.9485 19.364-3.0031 28.197-6.3917 16.934-22.721 26.733-32.524 41.404-8.1059 13.206-11.532 31.041-2.5418 44.723 4.6116 17.827-1.4178-8.3112-3.2665-14.296 0.74929-4.612 4.0702-22.457 2.1296-7.6517-2.5868 20.612 6.5283-25.004 2.5698-3.7561-4.8139 18.869 9.0235-22.517 2.3451-1.0044-2.647 6.9431-3.2038 20.303-0.95825 5.5089 2.0698-9.1747 8.2003-19.796 12.592-26.066-12.865 14.525 18.855-23.976 3.1234-5.9067-4.5278 4.4216-18.495 25.31-8.951 9.5548 3.9739-5.0833 17.986-21.737 6.3581-8.9646-6.5146 4.2486-18.534 29.984-8.9853 8.951 5.16-9.0647-10.855 15.009-3.2395 0.11781 11.359-16.434 30.969-27.576 35.445-48.464 5.2849-17.165 1.0195-38.215-13.244-49.868 8.0399 9.2128 15.667 21.987 13.332 34.498l-0.64359-3.4934-0.53766-3.4841zm-12.502-27.92c-3.4132-3.5012-4.113-2.4029 0 0zm33.589-34.224c-3.6081 0.23439-2.1871 1.1223 0 0zm-25.56 16.796c1.2348 0.47268 2.2498-1.8898 0 0zm21.379-16.189c-6.5832 0.7706-9.4678 3.6605 0 0zm-13.524 44.182c7.1702 2.0097 19.199 4.5907 4.2911 2.5533-24.585-2.946 39.764 5.5974 11.103 3.2065-6.811-1.0723-22.123-3.0565-7.5089-0.56162 6.8403 2.5831 34.325 2.9244 14.154 3.32-6.1137-0.54841-22.418-2.7679-7.9324-0.10692 6.7601 1.5182 32.054-0.12773 13.017 1.6792-7.9281 2.3496-36.181-5.4294-15.789 1.9493 13.547 2.4104 26.998 1.7974 40.441-0.57979 12.195-2.4695 24.348-11.018 36.106-7.7886 8.2308 2.8362 12.564 5.3057 13.005 2.7856 8.2454 2.1324 19.35 15.163 7.756 2.5164-14.073-8.9798-32.251-9.6616-47.138-1.7803-6.9809 3.7692-13.024 2.8851-2.6526-0.3208 5.6516-5.217 32.412-6.1881 13.58-9.5509-13.344-4.629-32.259-2.1913-36.963-4.7267-15.498-0.85881-32.562 3.6606-46.836-3.1198 13.676 3.8384 29.741 2.9582 44.34 1.36 8.6507 1.1318 23.582 0.69288 5.839-0.0383-16.057-0.0421-32.132 2.3035-47.802-1.9482 8.8232 0.73991 28.831 3.4115 41.794 0.72029 11.698-1.1728-13.627 0.34491-18.822 0.19107-7.9882 0.50747-28.422-4.3837-10.233-1.6274 10.015 1.8704 32.447 0.27942 34.781-0.74286-8.8182 1.5132-34.898 0.6139-32.883-1.6317 19.905 4.6433 40.204-3.403 59.753 4.1561 9.0836 2.9271 24.035 11.826 11.33 1.6173 8.7489 4.2744-8.7148-7.6974 3.3269 0.006 7.3261 5.0437 10.552 6.4949 1.319-0.0499-20.267-15.787-47.772-20.866-72.214-12.827-7.8759 3.6273-30.224 2.7667-28.651 5.8037 11.841 12.524 31.397 9.8564 47.153 8.9149 14.028 1.0087-14.966 3.1475-20.376 1.8447-15.866-2.3257-13.558 0.63157-12.1 3.3313-3.3521 0.51201 4.5029 1.6355 4.812 1.4451zm-38.814 4.395c0.0197-5.3173-3.7221-9.6962 0 0zm49.411-46.005c20.122-4.8299 41.933-1.056 60.101 8.425 6.3169 4.1499 17.853 14.509 6.304 3.02-13.54-10.205-30.74-13.496-47.189-14.762-7.4701-0.27569-26.695 3.797-26.625 5.8031 2.5025-0.7204 5.0372-1.3844 7.4088-2.4857zm67.529 15.409c-14.061-13.485-34.525-15.518-52.926-14.989-11.034 0.61733-33.241 9.1088-35.779 11.653 13.65-4.5628-8.3047 4.685 5.8668-0.63555 3.3084-0.0663-5.1861 3.3528 4.0648 0.38045 8.1843-3.5005 23.374-4.5992 6.6667-1.195-6.3012 2.3088-16.333 5.7582-4.2421 2.2797 13.104-3.5747 27.632-8.067 40.846-3.5534-9.9892-2.4908-33.348 0.84115-34.734 3.7801 13.968-3.9293 29.753-5.0478 43.407-0.0826-17.741-3.9526-36.499-2.669-53.26 4.59 18.4-4.6991 37.94-9.1089 56.445-2.1236-3.0904 0.74082-24.98-5.7657-35.46-1.3451-6.6959 1.2166-18.674 6.1006-5.0526 2.5966 19.367-6.1998 40.998-1.3447 58.23 8.8033 4.0513 1.2117 24.978 17.266 9.4045 4.3173-7.1326-4.0808-10.923-9.321-1.4872-2.3139 12.442 9.5251 0.2402-1.3146-5.0423-5.7072 4.7976 2.0973 16.904 13.253 6.8005 3.3203-12.832-12.894 15.113 12.61 0.63328-1.8366-7.1551-6.9456 8.9589 6.631-0.53842-2.0302-5.5865-4.8344-19.297-16.178-5.2394-6.5354 6.6451 6.2642 15.564 13.246 3.9584 2.6248l-2.5619-1.998zm-101.26 13.285c14.602 7.0899 18.969 45.845 18.076 43.204 0.75584-18.38-7.1387-38.172-23.817-47.592 1.8129 1.597 3.9079 2.8189 5.7412 4.3875zm29.615-29.086c-8.393 1.0882-14.545 4.9135-2.7394 0.64051l2.7394-0.64051zm17.994-0.71875c-11.262-0.27242-33.886 8.9387-35.536 10.834 11.427-4.7943 23.232-9.0125 35.536-10.834zm-38.282 11.708c-2.0744 0.65805-1.3297 1.4 0 0zm5.8025-6.2762c7.0608-2.8564 1.2242-1.2896 0 0zm41.301-35.109c3.8708-5.2196 1.3908-5.0033 0 0zm-40.522 32.775c9.1-2.8292 14.041-4.4554 1.8983-1.1955l-1.8983 1.1955zm-22.601 21.506c-3.6889-2.7497-1.1375 0.11606 0 0zm66.128-59.986c1.7593-2.5291 0.25883-2.3716 0 0zm52.119 48.05c11.653 11.613 22.529 25.635 25.895 42.085 0.14134-17.992-15.472-31.769-26.795-44.186-18.934-17.757-46.655-23.653-71.758-19.413-17.1 2.4736-32.886 11.708-48.275 19.507-5.6749 2.4358-18.841 11.725-6.6113 5.1288 20.441-13.331 43.754-22.156 68.292-23.14 7.3063-2.0288 30.895 5.04 11.754 1.4498-14.144-0.93832-29.878 0.07-43.169 5.8046 11.018-3.0411 23.173-6.1304 34.345-5.185-6.0348 0.19147-31.58 3.9368-25.124 4.3166 15.144-3.7352 26.377-3.7298 39.066-0.10984 19.662 2.1864 37.79 14.234 47.647 31.277-0.61651-5.916-18.289-21.079-4.7267-10.266 5.5466 6.8508 14.71 23.886 5.7297 7.0214-6.1939-8.2642-11.246-13.698-8.2262-12.378-1.3497-5.4136 14.665 13.876 17.098 19.722 6.3322 11.85 4.257 5.3734-0.84521-2.6783-3.3489-8.5006-21.915-24.12-20.226-23.88 2.1157 1.4693 3.9794 3.2529 5.9307 4.9234zm-116.63-11.179c-2.6118 2.0683-1.3381 2.0456 0 0zm-0.0825-8.4138c0.798-1.8254-4.0438 4.8558 0 0zm-12.265 7.24c9.2372-9.2271 8.7482-13.199 0 0zm-143.42 119.63c3.7528-3.5518 1.732-3.7802 0 0zm125.73-108.34c2.4242-8.0168 0.0262-6.4587 0 0zm-70.049 74.04c-19.774 10.601-41.003 19.776-56.108 37.039-10.579 3.9122 15.155-9.0863 4.995-1.5598 11.533-5.6525 20.016-15.601 30.812-22.359-6.7538 2.3213-27.916 18.759-12.511 5.3891 13.682-7.6269 27.452-15.364 42.022-21.178 9.6947-3.2058 1.5502-19.007-6.8336-8.6349-20.241 8.7118 25.613-14.831 3.6573-4.3701-23.202 10.544-44.377 26.489-59.406 47.241 10.812-13.386 24.252-24.676 38.462-34.253-6.6141 7.0007-21.849 16.672-29.679 26.536 16.135-12.153 34.832-20.354 53.211-28.41 5.1776-0.069-8.3949 4.2296-8.6219 4.5593zm-60.779 35.481c1.9597-3.6928 0.8853-3.7613 0 0zm199.06-168.99c-15.013 5.5206 11.509-3.7308 9.09-4.6838-20.39 1.8678-35.389 18.575-47.863 33.409-7.2451 8.818-0.4937 2.5357-6.6842 10.506-8.4867 10.856-4.1924 6.0388 2.0578-1.7007 6.0869-6.771 5.2678-4.9258 0.60717 1.2457 5.1055-5.289 14.023-15.517 5.125-3.56 5.5176-5.1094 15.377-19.405 15.292-16.082 11.755-9.8942-9.759 10.796-13.511 15.695-6.9583 9.59 0.3889-3.9928-5.7206 5.0267-9.847 12.082 10.375-8.242 13.528-12.209 5.5116-6.3486 14.479-12.78 3.6782-2.2017-5.1601 4.6777-19.938 21.312-6.716 8.372 4.8586-5.4333 22.866-21.246 8.4257-6.773-6.292 5.2988-25.92 26.065-10.692 11.632 5.2424-5.4749 26.945-25.497 12.013-10.199-5.606 4.7796-25.475 25.036-8.6068 10.089 4.7438-5.2366 25.212-22.747 10.915-8.8798-4.526 4.4144-19.468 17.174-19.546 18.145 8.5194-6.3696 22.729-19.79 27.647-22.482-6.2247 7.0461-23.526 19.885-24.292 21.804 8.5761-5.8262 23.481-19.427 27.464-21.011-9.1592 8.8914-19.989 15.783-29.48 24.285 5.0665-3.8918 29.016-20.888 12.255-7.4124-5.6337 4.5127-13.938 11.615-2.732 3.7634 9.2902-4.5718 26.314-20.886 30.1-21.025-6.1601 5.9386-24.987 18.004-23.322 19.37 7.7382-4.2517 25.372-21.318 26.887-20.144-6.4538 5.5512-28.268 24.263-10.378 10.674 4.8435-5.1029 24.555-21.961 9.8011-7.6619-5.2597 4.7152-11.263 10.906-1.4133 2.7353 6.6836-5.5611 17.786-17.331 5.7227-3.6894-5.0916 7.668 18.498-21.836 7.6207-6.328-6.6735 7.6246-6.321 9.3587 0.0559 1.2301 4.3564-7.354 12.412-18.651 3.6525-3.8845-11.658 17.217 9.3136-7.9944 6.5661-14.465-11.764-7.2564-27.13-5.5418-37.092 4.3256 2.5283-3.3738 6.6003-4.989 9.5462-7.9175zm-64.319 47.551c-3.4309 8.0104-3.4676 22.857-1.1535 5.9494 0.34193-1.991 0.70353-3.9797 1.1535-5.9494zm-70.008 69.522c-18.897 8.24-36.605 19.488-49.515 35.959-5.8669 5.464-18.388 23.614-6.0249 7.8932 15.594-20.37 37.464-34.951 60.401-45.78 8.0024-6.194-3.4424 1.384-4.8613 1.9277zm-62.175 45.432 0.7625-2.085-0.7625 2.085zm153.75-136.02c-5.1577 5.8016 3.9325-2.523-2.8951 5.6482-10.318 14.546 1.0127-2.5252 6.9914-6.8895-5.2475 5.6097-20.176 28.256-7.8304 11.17 3.8004-5.7044 17.887-20.7 8.7555-13.47 7.536-8.918-2.7361-1.5965-5.0213 3.5412zm45.918-34.685c-11.601 2.4428-28.373 10.341-31.349 20.942 4.8081-6.4899 18.21-13.99 4.911-3.7004-12.325 13.006 8.7522-8.6149 14.678-9.6922 1.102-3.334 21.698-5.0148 11.76-7.5499zm-45.858 31.802c-3.9162 6.5784 13.742-16.682 3.4256-4.2594l-1.793 2.174-1.6327 2.0854zm-54.216 50.462c-11.282 7.5369-16.094 21.505-18.396 34.211 0.17235-10.792 7.1715-31.076 20.843-37.722-2.7028-1.6148-19.871 15.693-19.892 26.851-2.3148 6.299-6.1533 34.119-4.222 13.958 2.7239-16.375 7.4986-34.346 23.171-43.1-19.953 10.599-25.181 36.022-24.563 56.699 1.5644 11.35-3.2819 0.65575 0.11962 12.376 4.1563 23.786 12.566 47.161 26.304 67.217 4.1208 6.2377 22.061 22.764 7.2635 7.6592-5.99-7.4198 27.322 24.442 11.143 8.1092-5.9428-4.1554-15.839-17.585-4.2626-5.244 5.673 5.8511 13.619 12.327 3.4755 2.4481-6.0496-5.8467-9.4682-11.757-5.665-8.5223-6.979-7.7582-13.901-33.243-11.22-34.155-0.97969 9.0648 11.436 34.164 3.1548 12.417-3.3969-7.65-0.69245-25.752-0.45424-7.9768-0.27804 9.5831 10.235 27.091 12.482 28.514-7.0278-11.049-12.618-27.429-9.6078-38.735-1.2639 9.7579 7.2132 34.047 9.4166 32.602-4.4359-7.4854-9.1102-31.005-6.8115-31.358-0.64248 8.4815 9.0691 36.476 4.3484 14.494-2.3087-6.9188-2.17-26.877-0.49108-8.9193 5.4016 19.985-0.93438-8.4 2.1329-9.3686-0.22696 8.8123 3.1846 18.836 2.2382 4.5826-0.81239-9.7005 0.98422-13.488 1.4899-1.5139 0.57941 3.6302 2.0295-25.944 2.6602-7.0815 0.50298-3.9334 4.1148-21.017 2.9962-9.4712 2.9313-6.9514 6.9889-26.966 8.2754-25.056-5.4104 22.847-16.34 45.1-13.516 69.193 2.4216 11.59 6.6568 30.135 17.646 33.851-14.498-20.51-16.308-48.396-8.1403-71.875 4.7025-16.816 11.537-33.76 9.9492-51.535 3.2122 4.6705-0.0916 26.378-3.9119 36.859-8.0892 23.321-14.205 49.643-3.1882 73.131 0.62687 8.3196 15.133 18.3 7.2889 4.7613-3.9819-1.2068-9.1026-20.976-7.9142-31.892 0.22628-17.57 6.4877-34.272 9.1158-51.515 3.8158-1.0137-8.2358 31.848-1.6811 22.951-3.0992 7.7316-5.6905 31.545-3.8875 28.581 0.63434-5.7385 3.2654-29.431 5.1342-25.553-2.5001 8.2578-3.4515 23.943-0.51836 6.857 6.688-24.895-2.9908 25.535 1.8312 5.2286 0.57731-4.9717 5.587-21.006 2.8696-6.3868-3.8551 17.943 6.5037-21.282 1.967 0.0328-0.97919 6.2466 6.8578-17.203 3.123-1.618 1.1243-3.3058 4.2981-11.043 3.4925-3.54 3.8393-10.108 2.658-0.21681 6.565-8.36 1.9524 1.8003 10.529-9.4653 14.978-18.737 7.1124-22.24 1.5056-49.853-18.89-63.501-11.016-7.5256 13.236 9.7894 13.661 16.851-4.4975-7.0384-17.881-19.779-20.581-18.958 8.0736 4.3828 13.98 12.173 2.8413 3.1384-14.312-6.7545 2.7313 0.63608 3.2876 4.452-7.8994-5.8122-11.82-7.0074-1.4146 0.17826 4.9487 5.8474-13.161-8.6966-0.0785 2.2361 6.6036 7.2624 14.997 16.733 14.547 26.685 0.10192-7.9033-16.359-27.594-15.106-24.493 4.7463 3.827 9.8027 15.857 2.2118 4.3529-5.5012-5.0643-2.76-5.584-3.3261-0.73844-4.9796-8.4121-6.144-7.7122-2.9231-0.42-5.1892-8.5792-4.8441-5.716-1.7919 1.4975-7.0791-14.912 3.1666 13.722-1.6212 5.6688 1.7168 8.6804-0.69068 18.307-0.75691 3.5616 1.9854-7.2485-10.576-26.213-10.416-23.232 5.2307 5.5693 5.8787 23.912 2.3003 7.768-1.9612-7.2659-11.631-15.911-4.1711-3.4972 4.2316 6.5175 5.2247 29.106 3.089 27.682 2.0326-7.4041-2.5876-24.942-0.0451-7.6887 0.0126 21.192-3.4706-24.503-2.3249-2.2526-1.707-9.4371-2.6194-5.6691-4.5606-11.654-2.4033 2.6627-4.4952-15.944-2.8806-1.3784-3.319-6.9703-2.4646-12.32-2.8175-1.06-1.8995-4.3498-1.1923-10.538-2.5038-2.045-1.6608-6.9458 1.3551-10.918-2.1795-1.2403-0.84908-7.6256-1.1629-0.63917-3.3476-2.003 6.1309-13.134-6.4897 9.8102-0.90168-4.0742-2.4912 2.5353-6.3049 9.8358-3.9275 2.5075-8.1495 13.408 2.4812-8.6009-4.5075 3.7238-7.3918 11.434 4.3136-9.9142-3.5144 2.8969-6.3213 14.992-2.3449 0.044 1.8406-6.1431-5.3879 5.2273-13.026 27.887-7.3617 9.0736 2.9115-8.2093 5.1602-10.196-2.057-3.1548 9.7792-17.899-10.154 11.934-9.3482 8.0143 1.1906-5.4297 16.196-21.113 12.445-17.102zm44.048-44.595c3.3354-3.8644 1.3329-4.2254 0 0zm-68.208 94.115c-0.0655-16.537 3.2731-33.645 13.1-47.348-12.08 13.814-14.769 34.287-13.141 51.861l0.16546-2.2053-0.12426-2.3084h0.00005zm14.314-48.65c1.2276-0.19055 2.7495-4.5353 0 0zm10.996-8.9538c-7.2575 3.8237-13.081 10.834-2.5291 1.8886l2.1303-1.5373 0.39875-0.35125zm29.936-2.96c2.3989-6.0933 11.622-28.22 5.1073-9.9677-3.1421 8.8193-5.6395 20.284-1.0034 5.5508 5.7584-16.38 13.877-32.215 25.411-45.228-12.165 7.7458-21.951 27.506-27.185 42.939l-1.1774 3.348-1.1532 3.3583zm-126.06 84.35c2.0603-3.2806-0.12858-0.92678 0 0zm144.39-127.09c2.5536 3.6124 17.068-21.57 4.4598-5.8298-1.5164 1.9205-2.9956 3.8708-4.4598 5.8298zm-16.636 12.73c1.6923-4.7181-0.15169-3.8788 0 0zm-8.105 5c0.31216-2.8377-1.2632-0.00061 0 0zm-122.7 108.04 1.0612-2.8175-1.0612 2.8175zm159.41-140.05c2.2187 3.3092 1.7231 7.2163 3.4462 9.6991 5.6255 7.6236-1.3133-22.574-3.4462-9.6991zm-28.76 41.065c0.15046-6.2893 11.822-27.911 7.3491-23.553-4.1516 8.6714-7.9492 15.747-7.3491 23.553zm2.615-17.151c2.1428-6.3675 0.97333-6.3969 0 0zm23.812-22.809c-1.4362-8.1933-16.67 22.98-5.1447 6.0678 1.7002-2.0351 3.4741-4.0078 5.1447-6.0678zm-22.11 15.891c-0.86404 0.61405 0.22672 3.6408 0 0zm-134.91 118.29c1.0682-2.1521-0.0359-2.2016 0 0zm134.94-118.79 0.6625-2.4675-0.6625 2.4675zm1.5688 0.98c3.8208-6.8319 0.95691-8.8159 0 0zm-24.201 21.026c-0.8484-5.6413-1.9872-3.869 0 0zm-10.776 1.6888c0.24983-1.2182-2.62-0.36946 0 0zm38.232-36.185c2.1971 2.0048 1.2512 8.9905 4.1273 12.307 4.2766 6.8654 0.26003-20.111-4.1273-12.307zm-8.225 10.764c1.2752-2.6578 3.8493-16.198 0 0zm-15.369 30.006c-0.27528-7.9387-5.5569-27.55-2.1481-9.3322 0.6611 3.1233 1.469 6.2129 2.1481 9.3322zm-5.1675-17.151c1.5153 8.1458 2.5898 6.4404 0 0zm2.475-3.355c3.3781 7.916 6.7319 39.686 4.221 16.697-0.8795-4.4895-2.2937-16.254-4.221-16.697zm-119.91 103.7c1.1163-0.34193-0.15432-3.534 0 0zm128.39-77.674c1.7738 4.7046 0.16817-22.386-5.689-29.042-2.0768-4.0998 6.6732 27.685 4.4994 23.516-1.6537-14.446 1.9368-1.6626 1.1896 5.5259zm-0.0737-20.211c-0.0419-5.509-4.6022-23.112-1.5184-7.3146l0.66453 3.6512 0.85391 3.6634v-0.00005zm-35.85 28.432c-7.8684-3.4781-30.44 7.4906-9.9733 3.0148 16.86-3.4039-16.249 2.1199 0.10646-1.9682 3.2695-0.52313 6.5876-0.60497 9.8669-1.0466zm42.219-43.458c2.2712 13.136 0.81014-20.965-1.3305-3.8784-0.0635 9.6017 1.3314 16.559 0.77621 2.7122-1.2835-6.5653 1.8972-2.009 0.55425 1.1662zm-12.459 2.4575c2.3451 5.759 0.77575-4.9394 0 0zm-23.825 42.388c-8.347 1.7845-27.482 3.6382-29.268 4.8625 9.8622-0.79763 19.767-1.9918 29.268-4.8625zm-35.342 7.0038c9.9135 0.99658 36.988-4.5646 35.647-5.892-11.057 3.466-26.521 3.3538-35.647 5.892zm64.745-59.949c2.1106 8.1507 3.8259 31.782 4.648 29.774-1.3018-13.871 1.061-7.8803 1.0912 2.1116 0.0464-4.5486-0.84439-25.261-3.1392-31.342 1.8437 17.042-0.0395 6.1006-2.6-0.54375zm14.574 5.5838c-0.50123-6.8847 9.2467-24.338 6.8056-23.547-5.2732 8.4216-11.22 29.443-10.327 32.263 0.9207-2.3181 5.8703-23.223 3.5219-8.7156zm-25.76 8.2512c1.8748 11.726 5.866-19.081 0.57822-2.2457l-0.57822 2.2457zm-6.5762 10.492c-1.649-5.7128-3.8055-9.848-0.87332-1.6755l0.87332 1.6755zm17.866-14.281c-0.20807-8.5197-6.0305-13.891-0.97162-2.4474l0.97162 2.4474zm12.724-10.472c0.44687-6.7371 13.865-29.77 2.584-14.434-3.4821 3.673-9.1253 26.026-2.584 14.434zm27.965-30.699c-1.9853 0.821-15.017 11.611-6.6088 3.2125-6.1345 0.54572-2.9969 19.684-10.044 9.7675-10.064 11.65 3.4536 12.265-0.0834 14.676 1.235 1.5706 7.6254-8.4321 0.48188 2.9055 1.3137 0.21525 13.439-16.406 5.2157-4.5163-12.319 20.591 7.7166-11.995 11.261-8.0936-2.9647 3.8001 7.7276-6.324 0.11766 2.0262 4.2551-0.33029 11.307-9.1047 2.5821 0.42648-3.7685 7.7767 16.905-14.222 5.522-1.8783-17.544 15.786 17.942-12.488 3.4685-0.2039-7.1594 4.591-11.587 11.393-1.9538 2.878 7.7574-8.1838 27.791-10.26 11.121-19.826-6.9649-14.823-32.408-6.1403-33.1 3.9987 4.1871-10.23 31.55-13.688 27.139-2.3875-2.8412-2.666-6.7285-3.2694-10.381-0.54625 4.5462-6.6311-11.128 6.1159-1.1226-2.7086 0.54329-1.9504-16.474 12.416-5.1441 1.6917l1.5291-1.4219h0.00005zm-18.584 5.9525c3.1792 4.1258 10.154 11.654 4.6503-0.42384-0.93768-1.2283-5.3344-2.2871-4.6503 0.42384zm-23.591 17.426c-3.1638 5.3275-1.5602 7.0329 4.2602 4.533 5.7071 6.2854 3.4567-9.8911-4.2602-4.533zm-5.7-1.1212c4.7065 10.775 2.4016-4.2333 0 0zm11.831-16.054c-0.44338 7.1442 3.5215 27.012 1.9126 8.2513-1.556-1.6422 0.56368-8.2715-1.9126-8.2513zm-15.392 18.711c1.1916-5.3398 9.8942-15.744 0.18047-6.1406l-0.7469 3.0963 0.56643 3.0443zm-19.93 15.151c-1.8107-5.9047-5.5259-11.529 0 0zm-18.043 75.266c-6.6806 4.689-7.2056 3.0538-1.0525-1.1962-13.405 7.1276 11.642-9.8569-3.985-0.26766-5.3753 0.51808 17.484-12.673 2.8075-4.8298-16.807 9.507 19.085-12.874 1.7688-3.2042-5.409 4.212-13.627 6.9363-3.3705 0.41883 8.4514-3.6758 23.358-17.984 5.9494-7.8365-12.441 6.1247-24.15 14.063-34.615 22.597 10.866-12.767 26.92-20.296 41.672-27.863 9.628-4.1955 12.903-7.9677 0.77029-3.9762-14.608 3.2939-29.497 2.2986-44.181 4.3681-21.592-2.1169-39.261 15.701-48.993 33.214-4.5682 6.6411-8.2106 28.734-6.8027 27.696 0.17595-8.5002 8.2803-31.287 3.7219-10.84-2.6868 8.0146-2.5326 27.996-0.96733 8.375 0.10869-7.9783 7.8542-23.349 2.3926-6.8744-2.3073 6.5688-1.493 30.75-0.62078 12.197-0.52704-6.9668 7.7623-27.831 2.5504-9.8898-1.9517 7.0661-1.7671 24.257-0.59213 8.0699 0.32758-5.5961 8.2042-24.401 3.6006-9.2683-2.9866 6.6911-3.751 31.188-1.5841 12.131-0.39678-8.0356 13.47-37.65 5.0363-15.844-4.2001 14.464 6.2787-16.829 13.164-20.121 2.072-1.1124-14.424 22.994-11.359 22.592 3.2449-8.863 15.07-26.873 18.276-26.767-6.1001 5.5394-16.64 26.11-15.244 25.607 3.2426-5.9444 15.665-25.931 6.5574-8.699-5.0673 7.4599-13.679 31.216-11.563 30.961 3.2236-11.067 9.1539-28.385 16.191-34.174-6.2793 9.7421-15.348 32.571-4.5169 10.962 3.7251-8.9299 6.5542-9.0758 1.0938 0.43325-4.143 7.398-10.457 24.019-2.8353 7.8309 3.1733-6.9281 13.36-20.93 4.6567-5.5511-3.7754 4.5362-15.647 32.242-6.3853 13.893 3.2162-5.2755 16.501-28.276 9.6516-13.932 3.544-6.2869 20.049-18.887 7.63-6.5474-6.4472 6.0601-15.58 19.628-4.3475 6.2574 7.5997-6.1874-10.214 12.254-11.703 15.605-1.9288 5.2748 11.788-17.648 17.867-15.835-13.204 9.125-23.757 23.561-27.396 39.395 4.8908-15.671 14.938-30.979 29.481-38.63-11.175 8.4194-21.695 19.146-26.076 32.575 6.2626-12.831 16.232-25.748 29.026-31.634-12.489 6.509-27.47 27.187-28.977 34.043 7.09-14.18 19.487-24.743 31.783-34.291-5.919 6.6858-26.429 21.077-31.342 35.929 9.4965-15.386 22.191-29.165 38.212-37.818-9.8702 7.1003-29.457 23.586-30.119 28.628 11.923-15.024 26.972-27.308 44.48-35.19 7.7803-3.9405 25.787-15.206 8.0573-6.2971 4.3647-3.9645 14.783-10.16 3.0407-4.2898 2.6449-2.816 11.86-8.7862 1.4339-3.0472 2.2298-3.525 9.9968-7.1098 0.58666-3.0017 0.14923-2.2147 6.1535-3.2716 7.17-6.0646zm15.34-68.412c-5.3973-6.2047-12.098-9.7818-2.6716-1.6228l2.6716 1.6228zm-0.1275-13.561c0.11653-3.346-2.2139-4.7253 0 0zm36.629-30.768c6.0248-1.3254 4.5983 14.337 3.9893 0.0738-1.357-5.5693-7.1672-8.6865-3.9893-0.0738zm-39.01 22.958c-0.44076-2.3465-1.3809-1.0912 0 0zm5.155 11.502c-1.5764-8.7679-8.0947-20.763-2.0746-5.6166 0.70481 1.8672 1.4104 3.7344 2.0746 5.6166zm-3.0075 3.8212c-6.2157-4.9302-19.02-18.906-7.0016-5.1605 2.088 2.021 4.4104 3.828 7.0016 5.1605zm-1.4838-8.1275c-1.9801-6.4644-11.331-30.878-5.1832-13.33 1.5983 4.492 3.2766 8.9587 5.1832 13.33zm-60.309 20.45c9.7066-0.65975 29.092 8.7534 31.103 8.0912-13.582-5.3485-28.005-11.182-42.82-9.3499 3.9218 0.11877 7.937 0.0165 11.716 1.2588zm92.368-29.045c8.6642-3.9731-8.6972-36.317 1.6112-16.892 0.27449 9.2092 8.0205 20.427 5.0479 4.5139-2.8963-12.497-0.99906-23.519-11.517-32.868 7.2808 2.2431 16.074 25.398 8.615 7.8577-4.3681-9.9164-25.264-22.033-29.694-15.745 12.482 4.8172-18.775-1.6011-4.9762 10.974 5.1128 9.614 10.375 30.239 12.52 34.225-2.372-8.1063-11.054-34.718-3.3857-14.292 4.9894 16.137 8.7818 32.622 12.768 49.003-2.7188-15.706-6.288-31.248-10.926-46.515 5.6196 11.668 7.1477 26.048 10.926 38.735 0.70093-7.937-5.8706-23.032-4.4561-26.008 1.5361 7.2517 8.1477 33.228 4.052 13.148-2.8141-14.551 5.1601 17.983 1.6171 0.19875 0.69139-4.0424 2.915 12.188 2.7108 0.48859 1.5737 6.5535 3.6337-3.0288 3.8488 8.4062 0.91317 7.3317 3.9131 12.988 1.4008 2.0282-2.1257-8.0483-2.0841-18.051-9.1758-15.708-6.2098-8.7011 14.22-19.755 6.67-6.095l1.2355 2.4328 1.107 2.1122h-0.00005zm-111.56 24.918c-5.1593 0.31054-19.461 2.7604-6.3294 1.3334l3.2734-0.46996 3.0559-0.86348zm13.506 4.6388c-9.1251-3.139-39.933 1.4012-38.993 1.8133 22.786-3.6311 46.216-1.7571 68.068 5.56 6.5513 1.6549-13.137-5.9333-29.075-7.3732zm83.765-14.416c0.63427 8.2778 6.6148 29.566 2.72 10.341-5.396-23.015-11.333-46.33-21.331-68.021-12.278-13.768-13.027 9.96-14.224 9.1657 6.4919-10.098-6.4374-23.09-12.524-10.846-6.3023 21.046 3.2276 44.482 18.257 59.268-3.9288-7.9895-18.779-25.011-19.134-39.791-3.6831-22.123 8.1865 17.138 2.3595 4.1659 2.0348 6.9419 8.1865 16.818 5.9594 16.189 3.1041 7.4127 20.986 26.495 19.6 22.124-3.8088-2.5538-21.216-22.926-11.196-13.917-5.0167-6.9722-10.071-17.177-1.841-4.6858 5.1859 7.6635 18.872 19.863 9.7753 3.8979-3.0068-8.6885-10.082-25.791-8.2921-29.905 1.1741 7.2324 5.9818 19.443 1.9139 4.9292-2.1761-5.4061-2.9576-24.195-0.50861-7.9289 1.1543 7.3742 6.98 25.201 8.2878 26.249-3.5038-9.8892-10.588-35.694-8.3523-37.09 1.0374 8.0415 6.0717 30.758 7.6702 30.19-3.213-7.3761-6.6042-31.26-2.0642-11.166 4.3831 15.493 13.099 42.396 17.41 49.526-6.5987-15.526-11.129-32.107-15.141-48.609 4.338 6.949 10.376 39.154 14.797 43.976-3.2214-10.639-8.1529-22.028-9.1185-32.625 2.554 6.9141 7.2719 26.378 8.475 26.199-2.6863-5.3844-5.7925-23.275-1.56-8.014 3.6253 10.868 3.3577 9.3922 0.85258-0.48904 3.1786 5.9847 9.5427 31.324 5.3191 12.191-3.0541-7.7064-1.8679-13.013 0.1725-1.89 6.2304 20.538-4.1367-16.5 1.7197-3.4346zm-106.3 9.6962c-11.429 1.2614-35.807 7.7865-37.621 10.313 12.287-4.2968 24.949-7.3946 37.621-10.313zm-38.128 15.108c19.276 7.9467 37.396 19.99 57.454 25.678 17.987 2.7992 37.261 0.64964 52.718-9.7725 7.719-4.8202 30.923-6.5103 31.168-2.5094-12.129-2.5538 4.8066 1.2182-5.4635 0.9082 9.7234 2.1528 4.7767 1.8499-1.58 1.1525 7.216 4.21 21.234-1.2773 6.7253-3.4698-16.701-6.5383-32.372 5.3326-47.3 10.827-18.534 4.5683 13.589-6.2181 18.021-10.003 7.6457-4.5632 30.688-3.744 9.6896-7.5486-15.138-4.1836-31.078-4.9749-46.634-6.2143-0.1467-2.3395 21.848 1.9155 5.3832-3.2835-22.357-7.2739-46.935-6.5062-69.525-1.0423-19.952 1.4855 15.03 13.363-1.3196 8.4796-3.842-4.3156-23.767-5.2479-9.337-3.2021zm-9.9262 2.1188c-1.491-0.79059-6.2735 2.5957 0 0zm-4.2175-0.77375c-12.177 2.0016-1.4911 1.3793 4.065-0.7425l-2.0231 0.23529-2.0419 0.50721zm53.388-16.254c11.822-2.1334 12.458-0.50079 11.124-0.17836 7.6142-0.6071 18.653-0.50479 4.5954 0.66712-5.6726 1.3139 18.791-1.5958 22.121 1.4644 8.66 1.3529 21.04 6.3779 4.9229 2.4411-18.772-4.7283 12.146 3.1263 19.276 6.1601 14.292 5.3226-9.6362-5.2202 4.6886 0.30189 7.4378 3.3204 33.285 14.465 14.13 4.1855-19.117-10.649-40.386-17.665-62.47-17.165-20.873-1.0841-42.225-0.31177-61.407 9.4215-7.3672 1.7151-21.515 10.136-7.193 3.9935 8.5148-4.931 32.303-11.705 34.208-10.256-9.6686 2.0415-32.08 8.0665-32.136 11.614 15.142-7.336 32.148-11.838 49.088-13.72l-0.39344 0.70281-0.55281 0.36719v-0.0005zm-54.234 17.704c-7.1926 1.5508-8.3767 2.9276-8.8869 1.058-14.399 10.95 15.353 4.046 21.75 4.2998 18.821-2.7298-17.663 1.4789-0.49968-1.4912 17.796-3.1615-28.211 3.0633-4.6705-1.0328 21.388-4.2466-23.421 2.9526-3.8181-1.1244 17.954-4.8013-29.146 6.0717-6.1897-0.73618l2.3149-0.9732zm2.4762-11.134c5.275-4.0035 16.646-12.665 4.8722-4.5302-6.2882 3.6706-16.488 13.396-4.8722 4.5302zm-16.571 11.729c-4.2167-0.43951-3.1939 5.2916 0 0zm75.444-42.941c-6.3991-1.1945-25.102 3.9703-9.14 1.4034 5.585-0.0193-33.855 7.4948-13.144 3.5578 14.653-1.574-27.992 7.4959-12.843 6.3508-7.8835 2.6926-17.899 9.7437-4.0625 2.3143 4.1303-0.24179-23.377 13.627-19.254 13.741 5.5128-4.8916 27.441-16.568 12.202-4.2271-7.286 5.3559-14.339 10.394-1.5988 4.6377 19.726-7.0657 40.725-11.479 61.64-8.2773 25.287 1.6064 49.136 10.594 71.177 21.946 5.5602 5.3826 21.824 14.409 8.2337 4.1028-14.899-12.752-32.349-22.673-50.869-28.729 2.7592-2.4669 29.177 12.3 11.76 2.2454-6.5451-2.8781-14.22-7.3492-2.6383-2.1749 7.5571 3.038 27.293 16.579 25.72 14.322-6.1062-5.4026-33.83-22.714-12.381-10.263 6.08 4.219 30.188 22.121 13.369 8.3526-6.2336-4.8754-22.053-17.34-6.342-6.7083 6.0113 4.4074 30.858 26.166 15.551 11.356-5.4003-4.4444-26.026-20.681-8.8334-8.5126 6.7427 4.5263 23.181 20.619 9.2349 5.9975-8.1276-5.2615-11.772-10.897-1.1497-2.3254 4.4434 1.2946-12.876-10.481-18.082-14.173-27.112-17.199-62.329-26.922-93.31-14.402-16.326 3.6573-30.096 14.204-40.487 27.21-6.9614 3.1416-16.676 22.884-6.644 8.7758 13.17-16.107 29.523-30.772 50.563-35.052 2.0005-2.6044 30.51-3.017 21.329-1.4685zm-69.455 29.9c3.2098-2.5322-0.39166-1.2598 0 0zm79.791 39.294c-19.706-4.2212-35.361-20.942-56.508-18.962-11.9 1.5766-40.739 8.9503-31.932-12.732 8.3382-11.246 19.057-20.909 29.939-29.679 25.485-13.991 56.442-19.229 84.723-11.333 8.3446 0.62001 28.777 14.355 16.415-2.4748-5.8433-13.163-11.852-43.115 7.355-45.836 15.71 8.8122 27.582-16.967 43.599-2.7038 15.003 9.7883 23.447 27.468 22.039 45.375 6.6038-5.1762 20.853-24.351 36.552-25.65 16.364 1.0399 23.661 19.407 39.07 22.732 5.9944 6.7009 25.385 1.9991 17.138 18.113 0.56955 9.3232-27.493 26.144-6.6919 22.221 24.077 0.63845 49.716 9.6242 64.169 29.911 9.0631 10.222 19.238 21.727 21.224 35.351 2.2713 25.449-21.95-1.9726-34.738-0.42266-19.476-4.7377-36.42 12.183-56.299 8.6744-11.345 0.83665-28.74-9.5067-24.48 10.01-0.52675 24.287-15.456 44.41-29.781 62.71-12.538 15.098-7.107 38.405-13.375 52.562-20.764 4.0756-36.456-14.539-47.633-29.262-13.282-19.005-20.276-41.637-25.021-64.123-11.724-11.147-29.822 6.8564-40.784 13.96-11.868 8.1118-30.779 31.355-43.39 13.8-13.342-15.871-10.43-38.945-3.3682-56.887 6.294-15.11 18.181-26.684 31.777-35.353z" id="path2716"/>
  <path d="m297.32 510.2c8.0207 0.61429 29.211-0.81671 29.833 0.81338-6.7678 0.82369-28.918-0.42767-25.334 1.7204 10.769-0.24219 21.798 0.6231 32.411-0.77636-7.2171 3.2287-24.296 0.7092-26.021 2.5664 7.387 1.807 35.752-1.764 30.051-0.58938-7.5532 3.3513-39.913 1.1171-18.334 3.1124 7.2355 1.5522 38.902-4.4531 17.168 0.60292-8.8293 0.88466-23.664 1.3886-6.0546 1.3727 8.0556-0.25223 29.853-4.502 11.241-0.17573-6.8112 1.6416-24.895 2.919-8.8196 2.0942 8.2367-0.66142 35.22-6.2495 14.516-1.1792-8.5508 1.5319-25.819 3.2542-7.8552 2.0884 6.321 1.2324 28.031-7.6254 22.914-3.1364-16.078 3.2695-33.464 8.225-49.469 1.5231-7.1894-3.0537-28.123-8.2858-25.356-13.07 8.957 0.0663 26.725-3.7078 30.292-0.81112-6.6096-1.62-29.788 1.8233-25.986 2.0326 8.8537-0.28262 28.35-0.80197 30.397 0.50699-8.4698 0.59534-17.08 0.37731-25.596 1.3044" id="path2720"/>
  <path d="m307.36 620.92c-1.6785 3.7206-3.7908 3.6357 0 0z" id="path2780"/>
  <path d="m305.38 599.08c-0.35375 0.93917-0.35375 0.93917 0 0z" id="path2880"/>
  <path d="m308.1 601.64c-1.1594 3.7557-0.78482 0.44516 0 0z" id="path2884"/>
  <path d="m303.52 616.28c-0.25417 0.695-0.25417 0.695 0 0z" id="path2898"/>
  <path d="m301.26 622.03c-0.83334 3.7416-1.9397 3.7388 0 0z" id="path2906"/>
 </g>
</svg>